<svg xmlns="http://www.w3.org/2000/svg" width="33" height="32" fill="none"><g clip-path="url(#a)"><path fill="#2D3440" d="M27.249 10.2868c.725-1.48414 1.1387-3.09252 1.2173-4.73223.0786-1.6397-.1795-3.27822-.7594-4.82084-.0615-.18796-.1786-.35433-.3368-.47849-.1583-.12415-.3508-.20062-.5536-.21992-.2027-.0193-.4069.01943-.5872.11138-.1802.09194-.3286.23306-.4267.40583-1.3215 2.28508-4.1622 5.96939-6.2433 6.14051h-.0937a17.3402 17.3402 0 0 0-2.9032-.30199 17.41466 17.41466 0 0 0-2.9135.30199h-.0729C11.4949 6.53198 8.61254 2.84768 7.28062.5626c-.0929-.18283-.24095-.3341-.4246-.4338-.18365-.09971-.39425-.14316-.60397-.12462-.20972.01854-.40868.0982-.57061.22847-.16192.13026-.27917.30498-.33627.50108-.58999 1.53719-.85795 3.17258-.78828 4.81093.06967 1.63834.47558 3.24691 1.1941 4.73204-1.81058.2214-4.11022.7852-4.94267 2.2045C.60637 12.8176.5 13.1996.5 13.5885c0 .389.10637.771.30832 1.1073.23836.4113.59315.7482 1.02264.9711.42949.2229.91584.3226 1.40187.2872.86217-.017 1.71453-.1806 2.51816-.4831a8.44895 8.44895 0 0 0 .13527 1.6206c.46448 1.7883 1.07334 3.5385 1.82099 5.2346.1977.4731.41622 1.0066.53068 1.3287-.34182.808-.60992 1.6433-.80123 2.4965-.04941.6028.02842 1.2091.22877 1.7819s.51903 1.1002.93666 1.5501C10.1109 31.1544 12.7644 32 16.5312 32c3.7669 0 6.4307-.8456 7.9291-2.5166.4197-.4486.7397-.9758.9402-1.549.2004-.5731.2771-1.18.2252-1.783-.1878-.8529-.4524-1.6882-.7908-2.4965.1145-.3221.333-.8455.5203-1.3287.7555-1.6932 1.3646-3.444 1.821-5.2346.105-.534.1538-1.077.1456-1.6206.7774.2936 1.6008.457 2.435.4831.4873.0349.9749-.0649 1.406-.2877.431-.2227.7878-.5593 1.0289-.9706.2019-.3363.3083-.7183.3083-1.1073 0-.3889-.1064-.7709-.3083-1.1073-.8221-1.369-3.1217-1.973-4.9427-2.1944Zm-.9885-6.68414c.3753 2.10507.0088 4.27107-1.0406 6.15057a11.06324 11.06324 0 0 0-.8324-.87578c-.5881-.52298-1.2591-.95122-1.9875-1.26836 1.5008-1.12631 2.8043-2.47911 3.8605-4.00643Zm-19.46895 0c1.04564 1.53795 2.34648 2.89841 3.85005 4.02656-.72708.30839-1.39271.73768-1.96663 1.26837a10.63455 10.63455 0 0 0-.84286.87578C6.7796 7.8876 6.41311 5.71424 6.79155 3.60266ZM2.69174 13.7295c-.09365-.1611-.06244-.2114 0-.2517.23933-.3926 1.44638-1.0066 3.75643-1.2382-.11447.292-.21852.5839-.31217.8859-1.35273.6744-3.16331 1.0972-3.44426.604Zm22.43456 3.0199c-.4359 1.6525-.9993 3.271-1.6858 4.8419-.2717.6155-.5114 1.2437-.7179 1.8825l-.0625.312.1145.2819c.3291.7676.597 1.5584.8012 2.3656.011.3175-.0431.634-.1592.9311-.116.2972-.2918.5692-.5171.8003-.7492.8355-2.4558 1.822-6.3579 1.822s-5.6086-1.0066-6.3578-1.822c-.44928-.4703-.69183-1.0912-.67638-1.7314.20846-.8072.47978-1.598.81168-2.3656l.1144-.2819-.0728-.312a15.96435 15.96435 0 0 0-.7076-1.8925c-.6984-1.5789-1.26896-3.2078-1.70652-4.8722-.19845-1.1602-.10125-2.3498.28317-3.4655.38442-1.1156 1.04445-2.1237 1.92285-2.9367 1.5712-1.53011 5.1299-1.87237 6.3682-1.88243 1.2383-.01007 4.7242.34226 6.3891 1.90253.8837.8053 1.5483 1.8091 1.935 2.9224.3866 1.1132.4832 2.3016.2814 3.4597v.0403Zm5.2028-3.0199c-.2706.4832-2.0812.0704-3.3715-.594-.0832-.3019-.1873-.5939-.3017-.8959 2.2892.2316 3.4859.8456 3.7148 1.2382.052.0403.0728.0906-.0208.2517h-.0208Z"/></g><defs><clipPath id="a"><path fill="#fff" d="M.5 0h32v32H.5z"/></clipPath></defs></svg>