<svg xmlns="http://www.w3.org/2000/svg" width="14" height="14" fill="none"><g clip-path="url(#a)"><path fill="#2D3440" fill-rule="evenodd" d="M7.0003 2.125c-2.6925 0-4.8752 2.1828-4.8752 4.8753 0 2.6925 2.1827 4.8753 4.8752 4.8753 2.6925 0 4.8753-2.1828 4.8753-4.8753 0-2.6925-2.1828-4.8752-4.8753-4.8752ZM.7917 7.0004c0-3.4289 2.7797-6.2086 6.2086-6.2086 3.4289 0 6.2086 2.7797 6.2086 6.2086 0 3.4289-2.7797 6.2086-6.2086 6.2086-3.4289 0-6.2086-2.7797-6.2086-6.2086Zm6.2084-.6669a.6667.6667 0 0 1 .6667.6667v2.2167a.6667.6667 0 0 1-1.3333 0V7.0001A.6667.6667 0 0 1 7 6.3334Zm0-2.2168a.6667.6667 0 0 0 0 1.3334h.0059a.6667.6667 0 0 0 0-1.3334H7Z" clip-rule="evenodd"/></g><defs><clipPath id="a"><path fill="#fff" d="M0 0h14v14H0z"/></clipPath></defs></svg>